# xmcd
# 
# Track frame offsets:
#     150
#     11345
#     25155
#     40842
#     55065
#     68875
#     82705
#     94780
#     108855
#     120962
#     133505
#     146642
#     157242
#     169432
#     184130
#     198597
#     209492
#     231747
# 
# Disc length: 3287
# 
# Revision: 20
# Processed by: cddbd v1.5.2PL0 Copyright (c) Steve Scherf et al.
# Submitted via: fre:ac v1.0.17
# 
DISCID=f90cd512
DTITLE=Dolly Parton - The Essential Dolly Parton [DISC 01]
DYEAR=2005
DGENRE=Country
TTITLE0=Dumb Blonde
TTITLE1=Just Because I'm A Woman
TTITLE2=My Blue Ridge Mountain Boy
TTITLE3=Mule Skinner Blues (Blue Yodel No. 8)
TTITLE4=Joshua
TTITLE5=Coat Of Many Colors
TTITLE6=Touch Your Woman
TTITLE7=My Tennessee Mountain Home
TTITLE8=Jolene
TTITLE9=Please Don't Stop Loving Me
TTITLE10=I Will Always Love You
TTITLE11=Love Is Like A Butterfly
TTITLE12=The Bargain Store
TTITLE13=The Seeker
TTITLE14=We Used To
TTITLE15=All I Can Do
TTITLE16=Light Of A Clear Blue Morning
TTITLE17=It's All Wrong, But It's All Right
EXTD=
EXTT0=
EXTT1=
EXTT2=
EXTT3=
EXTT4=
EXTT5=
EXTT6=
EXTT7=
EXTT8=
EXTT9=
EXTT10=
EXTT11=
EXTT12=
EXTT13=
EXTT14=
EXTT15=
EXTT16=
EXTT17=
PLAYORDER=
